<mxfile modified="2023-09-18T19:54:12.101Z" host="Electron" agent="Mozilla/5.0 (Macintosh; Intel Mac OS X 10_15_7) AppleWebKit/537.36 (KHTML, like Gecko) draw.io/21.7.5 Chrome/114.0.5735.289 Electron/25.8.1 Safari/537.36" etag="6vuLLEqM-bDMcWbhiPdU" version="21.7.5" type="device">
  <diagram id="Ht1M8jgEwFfnCIfOTk4-" name="Page-1">
    <mxGraphModel dx="1188" dy="1596" grid="0" gridSize="10" guides="1" tooltips="1" connect="1" arrows="1" fold="1" page="1" pageScale="1" pageWidth="1169" pageHeight="827" background="#FFFFFF" math="0" shadow="0">
      <root>
        <mxCell id="0" />
        <mxCell id="1" parent="0" />
        <mxCell id="UEzPUAAOIrF-is8g5C7q-175" value="AWS Cloud" style="points=[[0,0],[0.25,0],[0.5,0],[0.75,0],[1,0],[1,0.25],[1,0.5],[1,0.75],[1,1],[0.75,1],[0.5,1],[0.25,1],[0,1],[0,0.75],[0,0.5],[0,0.25]];outlineConnect=0;gradientColor=none;html=1;whiteSpace=wrap;fontSize=12;fontStyle=0;shape=mxgraph.aws4.group;grIcon=mxgraph.aws4.group_aws_cloud_alt;strokeColor=#CC6600;fillColor=none;verticalAlign=top;align=left;spacingLeft=30;fontColor=#232F3E;dashed=0;labelBackgroundColor=#ffffff;container=1;pointerEvents=0;collapsible=0;recursiveResize=0;" parent="1" vertex="1">
          <mxGeometry x="147" y="-820" width="821" height="688" as="geometry" />
        </mxCell>
        <mxCell id="E76j6o1A-xm-eMg6upqM-4" value="Region" style="shape=mxgraph.ibm.box;prType=region;fontStyle=0;verticalAlign=top;align=left;spacingLeft=32;spacingTop=4;fillColor=none;rounded=0;whiteSpace=wrap;html=1;strokeColor=#00CC00;strokeWidth=1;dashed=0;container=1;spacing=-4;collapsible=0;expand=0;recursiveResize=0;fontColor=#009900;" vertex="1" parent="UEzPUAAOIrF-is8g5C7q-175">
          <mxGeometry x="49" y="54" width="717" height="599" as="geometry" />
        </mxCell>
        <mxCell id="E76j6o1A-xm-eMg6upqM-1" value="VPC" style="sketch=0;outlineConnect=0;gradientColor=none;html=1;whiteSpace=wrap;fontSize=12;fontStyle=0;shape=mxgraph.aws4.group;grIcon=mxgraph.aws4.group_vpc;strokeColor=#879196;fillColor=none;verticalAlign=top;align=left;spacingLeft=30;fontColor=#879196;dashed=0;" vertex="1" parent="UEzPUAAOIrF-is8g5C7q-175">
          <mxGeometry x="84" y="89" width="624" height="506" as="geometry" />
        </mxCell>
        <mxCell id="E76j6o1A-xm-eMg6upqM-36" style="edgeStyle=orthogonalEdgeStyle;rounded=0;orthogonalLoop=1;jettySize=auto;html=1;strokeColor=#000000;startArrow=classic;startFill=1;" edge="1" parent="UEzPUAAOIrF-is8g5C7q-175" source="E76j6o1A-xm-eMg6upqM-5" target="E76j6o1A-xm-eMg6upqM-6">
          <mxGeometry relative="1" as="geometry" />
        </mxCell>
        <mxCell id="E76j6o1A-xm-eMg6upqM-5" value="Internet Gateway" style="sketch=0;outlineConnect=0;fontColor=#232F3E;gradientColor=none;fillColor=#8C4FFF;strokeColor=none;dashed=0;verticalLabelPosition=bottom;verticalAlign=top;align=left;html=1;fontSize=12;fontStyle=0;aspect=fixed;pointerEvents=1;shape=mxgraph.aws4.internet_gateway;labelPosition=right;" vertex="1" parent="UEzPUAAOIrF-is8g5C7q-175">
          <mxGeometry x="379" y="571" width="51" height="51" as="geometry" />
        </mxCell>
        <mxCell id="E76j6o1A-xm-eMg6upqM-10" value="Availability Zone" style="fillColor=none;strokeColor=#147EBA;dashed=1;verticalAlign=top;fontStyle=0;fontColor=#147EBA;whiteSpace=wrap;html=1;" vertex="1" parent="UEzPUAAOIrF-is8g5C7q-175">
          <mxGeometry x="128" y="125" width="200.5" height="446" as="geometry" />
        </mxCell>
        <mxCell id="E76j6o1A-xm-eMg6upqM-40" style="edgeStyle=orthogonalEdgeStyle;rounded=0;orthogonalLoop=1;jettySize=auto;html=1;strokeColor=#000000;startArrow=classic;startFill=1;" edge="1" parent="UEzPUAAOIrF-is8g5C7q-175" source="E76j6o1A-xm-eMg6upqM-6" target="E76j6o1A-xm-eMg6upqM-29">
          <mxGeometry relative="1" as="geometry">
            <mxPoint x="507" y="214" as="targetPoint" />
          </mxGeometry>
        </mxCell>
        <mxCell id="E76j6o1A-xm-eMg6upqM-41" style="edgeStyle=orthogonalEdgeStyle;rounded=0;orthogonalLoop=1;jettySize=auto;html=1;strokeColor=#000000;startArrow=classic;startFill=1;" edge="1" parent="UEzPUAAOIrF-is8g5C7q-175" source="E76j6o1A-xm-eMg6upqM-6" target="E76j6o1A-xm-eMg6upqM-15">
          <mxGeometry relative="1" as="geometry">
            <mxPoint x="295" y="206" as="targetPoint" />
          </mxGeometry>
        </mxCell>
        <mxCell id="E76j6o1A-xm-eMg6upqM-6" value="Application Load Balancer" style="sketch=0;outlineConnect=0;fontColor=#232F3E;gradientColor=none;fillColor=#8C4FFF;strokeColor=none;dashed=0;verticalLabelPosition=top;verticalAlign=bottom;align=center;html=1;fontSize=12;fontStyle=0;aspect=fixed;pointerEvents=1;shape=mxgraph.aws4.application_load_balancer;labelPosition=center;" vertex="1" parent="UEzPUAAOIrF-is8g5C7q-175">
          <mxGeometry x="379" y="197.5" width="51" height="51" as="geometry" />
        </mxCell>
        <mxCell id="E76j6o1A-xm-eMg6upqM-15" value="Public subnet" style="points=[[0,0],[0.25,0],[0.5,0],[0.75,0],[1,0],[1,0.25],[1,0.5],[1,0.75],[1,1],[0.75,1],[0.5,1],[0.25,1],[0,1],[0,0.75],[0,0.5],[0,0.25]];outlineConnect=0;gradientColor=none;html=1;whiteSpace=wrap;fontSize=12;fontStyle=0;container=1;pointerEvents=0;collapsible=0;recursiveResize=0;shape=mxgraph.aws4.group;grIcon=mxgraph.aws4.group_security_group;grStroke=0;strokeColor=#248814;fillColor=#E9F3E6;verticalAlign=top;align=left;spacingLeft=30;fontColor=#248814;dashed=0;strokeWidth=3;perimeterSpacing=2;" vertex="1" parent="UEzPUAAOIrF-is8g5C7q-175">
          <mxGeometry x="162.25" y="158" width="130" height="130" as="geometry" />
        </mxCell>
        <mxCell id="E76j6o1A-xm-eMg6upqM-16" value="Private subnet" style="points=[[0,0],[0.25,0],[0.5,0],[0.75,0],[1,0],[1,0.25],[1,0.5],[1,0.75],[1,1],[0.75,1],[0.5,1],[0.25,1],[0,1],[0,0.75],[0,0.5],[0,0.25]];outlineConnect=0;gradientColor=none;html=1;whiteSpace=wrap;fontSize=12;fontStyle=0;container=1;pointerEvents=0;collapsible=0;recursiveResize=0;shape=mxgraph.aws4.group;grIcon=mxgraph.aws4.group_security_group;grStroke=0;strokeColor=#147EBA;fillColor=#C2DCFF;verticalAlign=top;align=left;spacingLeft=30;fontColor=#147EBA;dashed=0;" vertex="1" parent="UEzPUAAOIrF-is8g5C7q-175">
          <mxGeometry x="164" y="409" width="129.25" height="150" as="geometry" />
        </mxCell>
        <mxCell id="E76j6o1A-xm-eMg6upqM-44" value="RDS" style="sketch=0;points=[[0,0,0],[0.25,0,0],[0.5,0,0],[0.75,0,0],[1,0,0],[0,1,0],[0.25,1,0],[0.5,1,0],[0.75,1,0],[1,1,0],[0,0.25,0],[0,0.5,0],[0,0.75,0],[1,0.25,0],[1,0.5,0],[1,0.75,0]];outlineConnect=0;fontColor=#232F3E;fillColor=#C925D1;strokeColor=#ffffff;dashed=0;verticalLabelPosition=middle;verticalAlign=middle;align=left;html=1;fontSize=12;fontStyle=0;aspect=fixed;shape=mxgraph.aws4.resourceIcon;resIcon=mxgraph.aws4.rds;labelPosition=right;" vertex="1" parent="E76j6o1A-xm-eMg6upqM-16">
          <mxGeometry x="17" y="101" width="40" height="40" as="geometry" />
        </mxCell>
        <mxCell id="E76j6o1A-xm-eMg6upqM-43" value="Elastic Container Service" style="sketch=0;points=[[0,0,0],[0.25,0,0],[0.5,0,0],[0.75,0,0],[1,0,0],[0,1,0],[0.25,1,0],[0.5,1,0],[0.75,1,0],[1,1,0],[0,0.25,0],[0,0.5,0],[0,0.75,0],[1,0.25,0],[1,0.5,0],[1,0.75,0]];outlineConnect=0;fontColor=#232F3E;fillColor=#ED7100;strokeColor=#ffffff;dashed=0;verticalLabelPosition=middle;verticalAlign=middle;align=left;html=1;fontSize=12;fontStyle=0;aspect=fixed;shape=mxgraph.aws4.resourceIcon;resIcon=mxgraph.aws4.ecs;labelPosition=right;whiteSpace=wrap;" vertex="1" parent="E76j6o1A-xm-eMg6upqM-16">
          <mxGeometry x="17" y="43" width="40" height="40" as="geometry" />
        </mxCell>
        <mxCell id="E76j6o1A-xm-eMg6upqM-18" value="NAT Gateway" style="sketch=0;outlineConnect=0;fontColor=#232F3E;gradientColor=none;fillColor=#8C4FFF;strokeColor=none;dashed=0;verticalLabelPosition=middle;verticalAlign=middle;align=right;html=1;fontSize=10;fontStyle=0;aspect=fixed;pointerEvents=1;shape=mxgraph.aws4.nat_gateway;labelPosition=left;" vertex="1" parent="UEzPUAAOIrF-is8g5C7q-175">
          <mxGeometry x="203.25" y="328" width="50" height="50" as="geometry" />
        </mxCell>
        <mxCell id="E76j6o1A-xm-eMg6upqM-27" style="edgeStyle=orthogonalEdgeStyle;rounded=0;orthogonalLoop=1;jettySize=auto;html=1;exitX=0.5;exitY=0;exitDx=0;exitDy=0;strokeColor=#000000;" edge="1" parent="UEzPUAAOIrF-is8g5C7q-175" source="E76j6o1A-xm-eMg6upqM-16" target="E76j6o1A-xm-eMg6upqM-18">
          <mxGeometry relative="1" as="geometry" />
        </mxCell>
        <mxCell id="E76j6o1A-xm-eMg6upqM-26" value="" style="endArrow=classic;html=1;rounded=0;entryX=0.5;entryY=1;entryDx=0;entryDy=0;strokeColor=#000000;" edge="1" parent="UEzPUAAOIrF-is8g5C7q-175" source="E76j6o1A-xm-eMg6upqM-18" target="E76j6o1A-xm-eMg6upqM-15">
          <mxGeometry width="50" height="50" relative="1" as="geometry">
            <mxPoint x="178" y="329" as="sourcePoint" />
            <mxPoint x="230" y="297" as="targetPoint" />
          </mxGeometry>
        </mxCell>
        <mxCell id="E76j6o1A-xm-eMg6upqM-28" value="Availability Zone" style="fillColor=none;strokeColor=#147EBA;dashed=1;verticalAlign=top;fontStyle=0;fontColor=#147EBA;whiteSpace=wrap;html=1;" vertex="1" parent="UEzPUAAOIrF-is8g5C7q-175">
          <mxGeometry x="477" y="125" width="200.5" height="446" as="geometry" />
        </mxCell>
        <mxCell id="E76j6o1A-xm-eMg6upqM-29" value="Public subnet" style="points=[[0,0],[0.25,0],[0.5,0],[0.75,0],[1,0],[1,0.25],[1,0.5],[1,0.75],[1,1],[0.75,1],[0.5,1],[0.25,1],[0,1],[0,0.75],[0,0.5],[0,0.25]];outlineConnect=0;gradientColor=none;html=1;whiteSpace=wrap;fontSize=12;fontStyle=0;container=1;pointerEvents=0;collapsible=0;recursiveResize=0;shape=mxgraph.aws4.group;grIcon=mxgraph.aws4.group_security_group;grStroke=0;strokeColor=#248814;fillColor=#E9F3E6;verticalAlign=top;align=left;spacingLeft=30;fontColor=#248814;dashed=0;strokeWidth=3;perimeterSpacing=2;" vertex="1" parent="UEzPUAAOIrF-is8g5C7q-175">
          <mxGeometry x="510.25" y="158" width="130" height="130" as="geometry" />
        </mxCell>
        <mxCell id="E76j6o1A-xm-eMg6upqM-31" value="Private subnet" style="points=[[0,0],[0.25,0],[0.5,0],[0.75,0],[1,0],[1,0.25],[1,0.5],[1,0.75],[1,1],[0.75,1],[0.5,1],[0.25,1],[0,1],[0,0.75],[0,0.5],[0,0.25]];outlineConnect=0;gradientColor=none;html=1;whiteSpace=wrap;fontSize=12;fontStyle=0;container=1;pointerEvents=0;collapsible=0;recursiveResize=0;shape=mxgraph.aws4.group;grIcon=mxgraph.aws4.group_security_group;grStroke=0;strokeColor=#147EBA;fillColor=#C2DCFF;verticalAlign=top;align=left;spacingLeft=30;fontColor=#147EBA;dashed=0;" vertex="1" parent="UEzPUAAOIrF-is8g5C7q-175">
          <mxGeometry x="512" y="407" width="129.25" height="150" as="geometry" />
        </mxCell>
        <mxCell id="E76j6o1A-xm-eMg6upqM-45" value="Elastic Container Service" style="sketch=0;points=[[0,0,0],[0.25,0,0],[0.5,0,0],[0.75,0,0],[1,0,0],[0,1,0],[0.25,1,0],[0.5,1,0],[0.75,1,0],[1,1,0],[0,0.25,0],[0,0.5,0],[0,0.75,0],[1,0.25,0],[1,0.5,0],[1,0.75,0]];outlineConnect=0;fontColor=#232F3E;fillColor=#ED7100;strokeColor=#ffffff;dashed=0;verticalLabelPosition=middle;verticalAlign=middle;align=right;html=1;fontSize=12;fontStyle=0;aspect=fixed;shape=mxgraph.aws4.resourceIcon;resIcon=mxgraph.aws4.ecs;labelPosition=left;whiteSpace=wrap;" vertex="1" parent="E76j6o1A-xm-eMg6upqM-31">
          <mxGeometry x="73.75" y="45" width="40" height="40" as="geometry" />
        </mxCell>
        <mxCell id="E76j6o1A-xm-eMg6upqM-32" value="NAT Gateway" style="sketch=0;outlineConnect=0;fontColor=#232F3E;gradientColor=none;fillColor=#8C4FFF;strokeColor=none;dashed=0;verticalLabelPosition=middle;verticalAlign=middle;align=right;html=1;fontSize=10;fontStyle=0;aspect=fixed;pointerEvents=1;shape=mxgraph.aws4.nat_gateway;labelPosition=left;" vertex="1" parent="UEzPUAAOIrF-is8g5C7q-175">
          <mxGeometry x="551.25" y="329" width="50" height="50" as="geometry" />
        </mxCell>
        <mxCell id="E76j6o1A-xm-eMg6upqM-30" style="edgeStyle=orthogonalEdgeStyle;rounded=0;orthogonalLoop=1;jettySize=auto;html=1;exitX=0.5;exitY=0;exitDx=0;exitDy=0;strokeColor=#000000;" edge="1" parent="UEzPUAAOIrF-is8g5C7q-175" source="E76j6o1A-xm-eMg6upqM-31" target="E76j6o1A-xm-eMg6upqM-32">
          <mxGeometry relative="1" as="geometry" />
        </mxCell>
        <mxCell id="E76j6o1A-xm-eMg6upqM-33" value="" style="endArrow=classic;html=1;rounded=0;entryX=0.5;entryY=1;entryDx=0;entryDy=0;strokeColor=#000000;" edge="1" parent="UEzPUAAOIrF-is8g5C7q-175" source="E76j6o1A-xm-eMg6upqM-32" target="E76j6o1A-xm-eMg6upqM-29">
          <mxGeometry width="50" height="50" relative="1" as="geometry">
            <mxPoint x="526" y="329" as="sourcePoint" />
            <mxPoint x="578" y="297" as="targetPoint" />
          </mxGeometry>
        </mxCell>
        <mxCell id="E76j6o1A-xm-eMg6upqM-46" value="RDS" style="sketch=0;points=[[0,0,0],[0.25,0,0],[0.5,0,0],[0.75,0,0],[1,0,0],[0,1,0],[0.25,1,0],[0.5,1,0],[0.75,1,0],[1,1,0],[0,0.25,0],[0,0.5,0],[0,0.75,0],[1,0.25,0],[1,0.5,0],[1,0.75,0]];outlineConnect=0;fontColor=#232F3E;fillColor=#C925D1;strokeColor=#ffffff;dashed=0;verticalLabelPosition=middle;verticalAlign=middle;align=right;html=1;fontSize=12;fontStyle=0;aspect=fixed;shape=mxgraph.aws4.resourceIcon;resIcon=mxgraph.aws4.rds;labelPosition=left;" vertex="1" parent="UEzPUAAOIrF-is8g5C7q-175">
          <mxGeometry x="585" y="510" width="40" height="40" as="geometry" />
        </mxCell>
        <mxCell id="E76j6o1A-xm-eMg6upqM-42" style="edgeStyle=orthogonalEdgeStyle;rounded=0;orthogonalLoop=1;jettySize=auto;html=1;strokeColor=#000000;startArrow=classic;startFill=1;" edge="1" parent="1" source="E76j6o1A-xm-eMg6upqM-2" target="E76j6o1A-xm-eMg6upqM-5">
          <mxGeometry relative="1" as="geometry" />
        </mxCell>
        <mxCell id="E76j6o1A-xm-eMg6upqM-2" value="Users" style="sketch=0;outlineConnect=0;fontColor=#232F3E;gradientColor=none;fillColor=#232F3D;strokeColor=none;dashed=0;verticalLabelPosition=bottom;verticalAlign=top;align=center;html=1;fontSize=12;fontStyle=0;aspect=fixed;pointerEvents=1;shape=mxgraph.aws4.users;" vertex="1" parent="1">
          <mxGeometry x="530" y="-100" width="43" height="43" as="geometry" />
        </mxCell>
      </root>
    </mxGraphModel>
  </diagram>
</mxfile>
